<?xml version="1.0" encoding="UTF-8" standalone="no"?>
<!-- Created with Inkscape (http://www.inkscape.org/) -->

<svg
   xmlns:dc="http://purl.org/dc/elements/1.1/"
   xmlns:cc="http://creativecommons.org/ns#"
   xmlns:rdf="http://www.w3.org/1999/02/22-rdf-syntax-ns#"
   xmlns:svg="http://www.w3.org/2000/svg"
   xmlns="http://www.w3.org/2000/svg"
   xmlns:sodipodi="http://sodipodi.sourceforge.net/DTD/sodipodi-0.dtd"
   xmlns:inkscape="http://www.inkscape.org/namespaces/inkscape"
   width="286.4375"
   height="627.53125"
   id="svg2985"
   version="1.1"
   inkscape:version="0.48.4 r9939"
   sodipodi:docname="Nouveau document 1">
  <defs
     id="defs2987" />
  <sodipodi:namedview
     id="base"
     pagecolor="#ffffff"
     bordercolor="#666666"
     borderopacity="1.0"
     inkscape:pageopacity="0.0"
     inkscape:pageshadow="2"
     inkscape:zoom="0.35"
     inkscape:cx="66.84375"
     inkscape:cy="271.75389"
     inkscape:document-units="px"
     inkscape:current-layer="layer1"
     showgrid="false"
     fit-margin-top="0"
     fit-margin-left="0"
     fit-margin-right="0"
     fit-margin-bottom="0"
     inkscape:window-width="471"
     inkscape:window-height="487"
     inkscape:window-x="0"
     inkscape:window-y="24"
     inkscape:window-maximized="0" />
  <metadata
     id="metadata2990">
    <rdf:RDF>
      <cc:Work
         rdf:about="">
        <dc:format>image/svg+xml</dc:format>
        <dc:type
           rdf:resource="http://purl.org/dc/dcmitype/StillImage" />
        <dc:title></dc:title>
      </cc:Work>
    </rdf:RDF>
  </metadata>
  <g
     inkscape:label="Calque 1"
     inkscape:groupmode="layer"
     id="layer1"
     transform="translate(-308.15625,-175.15625)">
    <path
       style="font-size:medium;font-style:normal;font-variant:normal;font-weight:normal;font-stretch:normal;text-indent:0;text-align:start;text-decoration:none;line-height:normal;letter-spacing:normal;word-spacing:normal;text-transform:none;direction:ltr;block-progression:tb;writing-mode:lr-tb;text-anchor:start;baseline-shift:baseline;color:#000000;fill:#ffffff;fill-opacity:1;stroke:#ffffff;stroke-width:3;stroke-miterlimit:4;stroke-dasharray:none;marker:none;visibility:visible;display:inline;overflow:visible;enable-background:accumulate;font-family:Sans;-inkscape-font-specification:Sans"
       d="m 587.94415,177.97389 -0.84375,1.46875 -1.5625,2.71875 -54.40625,57.5625 -0.53125,0.53125 0.6875,0.25 16.6875,6.59375 0.375,0.125 0.21875,-0.34375 0.9375,-1.5625 -39.09375,68.5 -27.75,-28.4375 -0.34375,-0.375 -0.34375,0.34375 -1.21875,1.15625 -154.6875,58.78125 -15.5,-9.78125 -0.8125,-0.53125 0.0312,0.96875 2.125,42 0.0312,0.71875 0.65625,-0.3125 36.9375,-17 30.6875,19.71875 -0.1875,0.15625 0.46875,0 0.46875,0.3125 0.34375,0.21875 0.28125,-0.28125 0.21875,-0.1875 3.875,0.125 81.53125,18.8125 0.25,9.53125 -95.59375,51.84375 -0.96875,0.53125 1.03125,0.375 96.09375,35.5 -124.84375,85.28125 -0.125,0.0625 0.4375,0.875 0.125,-0.0625 127.40625,-43.125 -8.25,117.96875 -1.25,0 0,1 0.46875,0 -26.84375,136.3125 -1.40625,-60.53125 -1,0 1.5,65.0625 0,0.0937 1,0.0937 0,-0.0937 27.28125,-138.21875 -0.0937,1.34375 1,-1.1875 0.78125,-0.9375 78.3125,60.59375 0.625,-0.78125 -78.3125,-60.59375 0.9375,-1.15625 92.78125,0 1.71875,0.96875 0.46875,-0.875 -0.75,-0.40625 0,-0.6875 -1.1875,0 -63.21875,-35.4375 25.90625,-31.65625 0.34375,0.34375 0.25,-0.75 0.1875,-0.59375 0.25,-0.28125 -0.0937,-0.0937 15.9375,-46.375 33.3125,66.09375 0.90625,-0.46875 -33.28125,-66.03125 0.625,0.0312 -0.375,-0.75 -26.875,-54.40625 0.0625,-0.0937 67.25,-101.21875 0.875,0.0312 1.25,0.0312 -0.875,-0.90625 -0.28125,-0.28125 -0.0312,-0.3125 0.28125,-0.40625 -0.28125,0.0312 -0.0312,-0.25 -0.0625,0 -0.8125,-0.0312 -68.5625,-70.3125 81.375,-49.9375 0.25,-0.15625 0,-0.3125 -4.96875,-83.34375 0.53125,-0.875 0.0625,-0.0937 -0.6877,-0.5313 -0.0937,-1.6875 z m -71.78125,1.71875 -0.71875,0.96875 -33.09375,43.1875 -0.71875,0.90625 0.625,-0.0625 0,0.4375 -2.03125,59.84375 -0.0625,1.46875 0.9375,-1.125 42.1875,-51 0.53125,-0.625 -0.8125,-0.1875 -40.15625,-8.84375 -0.0625,-0.0312 38.125,-3.78125 0.53125,-0.0625 -0.0625,-0.5 -5.0625,-39.40625 -0.15625,-1.1875 z m -0.6875,2.53125 4.84375,37.6875 -36.46875,3.59375 31.625,-41.28125 z m 71.71875,0.46875 4.875,81.59375 -80.40625,49.3125 59.8125,-104.78125 15.71875,-26.125 z m -3.65625,3 -13,22.78125 -22.59375,37.53125 -15.59375,-6.125 51.1875,-54.1875 z m -100.3125,40.0625 38.75,8.53125 -40.6875,49.28125 1.9375,-57.8125 z m -0.90625,60.6875 27.59375,28.28125 -0.0625,0.0937 0.6875,0.65625 0.0625,-0.0312 68,69.75 -194.6875,-5.90625 97.53125,-91.96875 0.15625,-0.125 -0.0312,-0.0312 0.75,-0.71875 z m -3.5,1.875 -96.65625,90.90625 -1.5,-0.0312 -0.0937,0 -0.0937,0.84375 -29.84375,-19.1875 0.0625,-0.0312 -0.78125,-0.5 -4.9375,-3.125 -17.625,-11.3125 151.46875,-57.5625 z m -167.96875,48.53125 31.78125,20.0625 5.90625,3.78125 -35.65625,16.4375 -2.03125,-40.28125 z m 70.03125,43.4375 0.125,0.0312 -0.0312,0.0312 -0.0937,-0.0625 z m 4.78125,0.0625 188.84375,5.71875 -0.5625,0.0625 -188.15625,-5.75 -0.125,-0.0312 z m 5.25,1.21875 176.71875,5.375 -98.8125,12.625 -0.125,-0.0312 -0.5625,-1.125 -0.9375,0.21875 0,0.5625 -76.28125,-17.625 z m 184.875,5.625 3.03125,0.0937 -66.4375,99.96875 -30.21875,-60.4375 -12.84375,-26.03125 106.46875,-13.59375 z m -107.53125,14.09375 14.34375,28.625 55.40625,112.25 -0.1875,0.53125 0,0.0312 -64.84375,-1.71875 -0.875,-0.90625 0.0312,-0.25 -0.0312,0 -3.84375,-138.56245 z m -0.75,9.59375 2.40625,86.78125 -0.625,-0.25 -95.9375,-35.46875 94.15625,-51.0625 z m 2.40625,87.0625 1.1875,42.03125 -124.5,42.15625 122.78125,-83.8125 0.53125,-0.375 z m 2.0625,44.03125 0.625,0.0312 48.1875,49.1875 -26.09375,31.875 -0.59375,-0.34375 -0.5,0.875 0.46875,0.25 -28.78125,35.15625 -1.5,0 8.1875,-117.03125 z m 2.03125,0.0625 63.46875,1.6875 -16.03125,46.65625 -47.4375,-48.34375 z m 20.9375,82.3125 61.84375,34.65625 -90.1875,0 28.34375,-34.65625 z m -107.09375,30.90625 -23.75,46.46875 0.90625,0.4375 23.71875,-46.46875 -0.875,-0.4375 z m 75.875,4.75 0.75,0 -0.4375,0.53125 -0.34375,-0.25 0.0312,-0.28125 z m -99.46875,42.875 -0.375,0.0937 -33.3125,11.125 0.3125,0.9375 32.96875,-10.96875 68.46875,96.15625 0.84375,-0.59375 -68.71875,-96.46875 -0.1875,-0.28125 z"
       id="path3831"
       inkscape:connector-curvature="0" />
  </g>
</svg>
